<svg width="109" height="56" viewBox="0 0 109 56" fill="none" xmlns="http://www.w3.org/2000/svg">
<g id="Logo">
<g id="Logo_2">
<path d="M1.05994 26.9478V4.5H14.4013V8.41233H4.99619V12.966H12.8526V16.8783H4.99619V26.9478H1.05994Z" fill="#FF450D"/>
<path d="M15.8058 10.9136H19.742V26.9478H15.8058V10.9136ZM17.8062 8.84525C17.2254 8.84525 16.7361 8.65818 16.3381 8.28405C15.9402 7.89923 15.7412 7.41821 15.7412 6.84098C15.7412 6.27444 15.9402 5.79876 16.3381 5.41395C16.7361 5.02913 17.22 4.83672 17.79 4.83672C18.36 4.83672 18.8386 5.02913 19.2258 5.41395C19.6237 5.79876 19.8227 6.27444 19.8227 6.84098C19.8227 7.41821 19.6291 7.89923 19.2419 8.28405C18.8547 8.65818 18.3762 8.84525 17.8062 8.84525Z" fill="#FF450D"/>
<path d="M38.2708 16.8142V26.9478H34.3346V17.8404C34.3346 17.2097 34.1786 16.6378 33.8668 16.1247C33.5549 15.601 33.1354 15.1894 32.6085 14.8901C32.0922 14.5801 31.5168 14.4251 30.8823 14.4251C30.2478 14.4251 29.667 14.5801 29.14 14.8901C28.6238 15.1894 28.2097 15.601 27.8979 16.1247C27.5967 16.6378 27.4461 17.2097 27.4461 17.8404V26.9478H23.5099L23.4938 10.9136H27.43L27.4461 12.3407C27.9946 11.7635 28.6507 11.3092 29.4143 10.9778C30.1779 10.6357 31.0006 10.4647 31.8825 10.4647C33.0548 10.4647 34.1249 10.7533 35.0928 11.3305C36.0607 11.8971 36.8297 12.6614 37.3997 13.6234C37.9805 14.5748 38.2708 15.6384 38.2708 16.8142Z" fill="#FF450D"/>
<path d="M48.268 27.3646C46.7839 27.3646 45.4288 26.9852 44.2027 26.2262C42.9874 25.4673 42.0141 24.4464 41.2828 23.1637C40.5622 21.881 40.2019 20.4646 40.2019 18.9147C40.2019 17.7495 40.4116 16.6592 40.8311 15.6437C41.2505 14.6175 41.8259 13.7196 42.5572 12.95C43.2993 12.1697 44.1597 11.5604 45.1384 11.1221C46.1171 10.6838 47.1603 10.4647 48.268 10.4647C49.5263 10.4647 50.6771 10.7319 51.7203 11.2664C52.7743 11.7902 53.6669 12.5117 54.3983 13.431C55.1296 14.3503 55.6619 15.3979 55.9953 16.5737C56.3287 17.7495 56.404 18.9788 56.2212 20.2615H44.4286C44.5791 20.8601 44.8265 21.4 45.1706 21.881C45.5148 22.3513 45.9504 22.7308 46.4773 23.0194C47.0043 23.2973 47.6012 23.4416 48.268 23.4523C48.9563 23.463 49.5801 23.3027 50.1394 22.9713C50.7094 22.6292 51.1826 22.1696 51.559 21.5924L55.5759 22.5223C54.9199 23.944 53.9412 25.1092 52.6398 26.0178C51.3385 26.9157 49.8812 27.3646 48.268 27.3646ZM44.2995 17.3273H52.2365C52.1182 16.6859 51.8655 16.1087 51.4783 15.5956C51.1019 15.0718 50.6341 14.6549 50.0748 14.3449C49.5156 14.035 48.9133 13.88 48.268 13.88C47.6227 13.88 47.0258 14.035 46.4773 14.3449C45.9289 14.6443 45.461 15.0558 45.0738 15.5796C44.6974 16.0927 44.4393 16.6752 44.2995 17.3273Z" fill="#FF450D"/>
<path d="M71.0726 10.9136H75.0089V26.9478H71.0726L70.8952 24.9595C70.4542 25.6757 69.8681 26.2583 69.1368 26.7073C68.4162 27.1455 67.5612 27.3646 66.5718 27.3646C65.378 27.3646 64.2595 27.1402 63.2163 26.6912C62.173 26.2423 61.2535 25.6223 60.4577 24.8313C59.6726 24.0402 59.0542 23.1263 58.6025 22.0894C58.1615 21.0526 57.941 19.9409 57.941 18.7543C57.941 17.6106 58.1508 16.5363 58.5702 15.5315C59.0004 14.5267 59.5973 13.6448 60.3609 12.8858C61.1245 12.1269 62.0063 11.5336 63.0065 11.1061C64.0067 10.6785 65.0822 10.4647 66.233 10.4647C67.2977 10.4647 68.2495 10.6999 69.0884 11.1702C69.938 11.6405 70.6586 12.2391 71.2501 12.966L71.0726 10.9136ZM66.475 23.5966C67.3138 23.5966 68.0559 23.3882 68.7012 22.9713C69.3465 22.5544 69.852 21.9932 70.2176 21.2877C70.5833 20.5715 70.7661 19.7859 70.7661 18.9307C70.7661 18.0649 70.5833 17.2792 70.2176 16.5737C69.852 15.8575 69.3411 15.291 68.6851 14.8741C68.0398 14.4572 67.3031 14.2487 66.475 14.2487C65.6468 14.2487 64.8886 14.4625 64.2003 14.8901C63.5228 15.307 62.9797 15.8682 62.571 16.5737C62.173 17.2792 61.9741 18.0649 61.9741 18.9307C61.9741 19.7965 62.1784 20.5822 62.5871 21.2877C62.9958 21.9932 63.5389 22.5544 64.2165 22.9713C64.9048 23.3882 65.6576 23.5966 66.475 23.5966Z" fill="#FF450D"/>
<path d="M87.9104 22.1215L91.4594 24.0296C90.7174 25.0344 89.7871 25.8414 88.6686 26.4507C87.5501 27.06 86.3294 27.3646 85.0066 27.3646C83.5224 27.3646 82.1673 26.9852 80.9413 26.2262C79.726 25.4673 78.7527 24.4518 78.0213 23.1797C77.3008 21.897 76.9405 20.4807 76.9405 18.9307C76.9405 17.7549 77.1502 16.6592 77.5696 15.6437C77.9891 14.6175 78.5644 13.7196 79.2958 12.95C80.0378 12.1697 80.8982 11.5604 81.8769 11.1221C82.8556 10.6838 83.8988 10.4647 85.0066 10.4647C86.3294 10.4647 87.5501 10.7693 88.6686 11.3786C89.7871 11.9879 90.7174 12.8057 91.4594 13.8319L87.9104 15.7239C87.5339 15.2963 87.0876 14.9649 86.5714 14.7298C86.0659 14.4946 85.5443 14.377 85.0066 14.377C84.2322 14.377 83.5332 14.5908 82.9094 15.0184C82.2856 15.4353 81.7909 15.9911 81.4252 16.6859C81.0596 17.3701 80.8767 18.1183 80.8767 18.9307C80.8767 19.7324 81.0596 20.4807 81.4252 21.1755C81.7909 21.8596 82.2856 22.4101 82.9094 22.827C83.5332 23.2439 84.2322 23.4523 85.0066 23.4523C85.5658 23.4523 86.0982 23.3347 86.6036 23.0996C87.1091 22.8537 87.5447 22.5277 87.9104 22.1215Z" fill="#FF450D"/>
<path d="M100.95 27.3646C99.4655 27.3646 98.1104 26.9852 96.8844 26.2262C95.6691 25.4673 94.6958 24.4464 93.9645 23.1637C93.2439 21.881 92.8836 20.4646 92.8836 18.9147C92.8836 17.7495 93.0933 16.6592 93.5128 15.6437C93.9322 14.6175 94.5076 13.7196 95.2389 12.95C95.981 12.1697 96.8414 11.5604 97.8201 11.1221C98.7987 10.6838 99.842 10.4647 100.95 10.4647C102.208 10.4647 103.359 10.7319 104.402 11.2664C105.456 11.7902 106.349 12.5117 107.08 13.431C107.811 14.3503 108.344 15.3979 108.677 16.5737C109.01 17.7495 109.086 18.9788 108.903 20.2615H97.1102C97.2608 20.8601 97.5082 21.4 97.8523 21.881C98.1965 22.3513 98.632 22.7308 99.159 23.0194C99.686 23.2973 100.283 23.4416 100.95 23.4523C101.638 23.463 102.262 23.3027 102.821 22.9713C103.391 22.6292 103.864 22.1696 104.241 21.5924L108.258 22.5223C107.602 23.944 106.623 25.1092 105.322 26.0178C104.02 26.9157 102.563 27.3646 100.95 27.3646ZM96.9812 17.3273H104.918C104.8 16.6859 104.547 16.1087 104.16 15.5956C103.784 15.0718 103.316 14.6549 102.757 14.3449C102.197 14.035 101.595 13.88 100.95 13.88C100.304 13.88 99.7075 14.035 99.159 14.3449C98.6105 14.6443 98.1427 15.0558 97.7555 15.5796C97.3791 16.0927 97.121 16.6752 96.9812 17.3273Z" fill="#FF450D"/>
<path d="M0 48.4936V40.0757H0.84694V48.4936H0Z" fill="#808080"/>
<path d="M8.72017 44.7717V48.4936H7.87323V44.94C7.87323 44.6113 7.79257 44.3127 7.63125 44.0441C7.46993 43.7756 7.25416 43.5611 6.98395 43.4008C6.71373 43.2404 6.41327 43.1603 6.08256 43.1603C5.75588 43.1603 5.45542 43.2404 5.18117 43.4008C4.91096 43.5611 4.69519 43.7756 4.53387 44.0441C4.37255 44.3127 4.29189 44.6113 4.29189 44.94V48.4936H3.44495V42.4808H4.29189V43.3106C4.50564 43.0059 4.78392 42.7634 5.12673 42.583C5.46954 42.4026 5.84259 42.3125 6.2459 42.3125C6.70163 42.3125 7.11704 42.4227 7.49211 42.6432C7.86718 42.8636 8.16563 43.1603 8.38745 43.5331C8.60927 43.9058 8.72017 44.3187 8.72017 44.7717Z" fill="#808080"/>
<path d="M13.7034 48.4936H12.6266L10.4185 42.4628H11.3199L13.165 47.5075L15.0101 42.4628H15.9115L13.7034 48.4936Z" fill="#808080"/>
<path d="M20.3072 48.6499C19.7506 48.6499 19.2425 48.5076 18.7827 48.223C18.327 47.9384 17.962 47.5576 17.6877 47.0806C17.4175 46.5996 17.2824 46.0684 17.2824 45.4872C17.2824 45.0463 17.361 44.6354 17.5183 44.2546C17.6756 43.8698 17.8914 43.5331 18.1656 43.2444C18.4439 42.9518 18.7666 42.7233 19.1336 42.559C19.5006 42.3946 19.8918 42.3125 20.3072 42.3125C20.7548 42.3125 21.1662 42.4006 21.5413 42.577C21.9204 42.7534 22.2451 42.9999 22.5153 43.3166C22.7895 43.6333 22.9952 44.0041 23.1323 44.429C23.2735 44.8539 23.332 45.3128 23.3078 45.8059H18.1777C18.2261 46.1867 18.3471 46.5274 18.5407 46.8281C18.7383 47.1287 18.9884 47.3672 19.2909 47.5436C19.5974 47.7159 19.9361 47.8041 20.3072 47.8081C20.7105 47.8081 21.0735 47.7039 21.3961 47.4955C21.7228 47.287 21.9849 47.0004 22.1825 46.6357L23.0416 46.8341C22.7996 47.3672 22.4346 47.8041 21.9466 48.1449C21.4586 48.4816 20.9121 48.6499 20.3072 48.6499ZM18.1535 45.1264H22.4548C22.4265 44.7536 22.3116 44.4129 22.11 44.1043C21.9123 43.7916 21.6562 43.5431 21.3417 43.3587C21.0271 43.1703 20.6823 43.0761 20.3072 43.0761C19.9321 43.0761 19.5893 43.1683 19.2788 43.3527C18.9682 43.533 18.7141 43.7796 18.5165 44.0922C18.3189 44.4009 18.1979 44.7456 18.1535 45.1264Z" fill="#808080"/>
<path d="M27.1939 48.6078C26.8632 48.5998 26.5405 48.5397 26.2259 48.4275C25.9114 48.3152 25.6371 48.1629 25.4032 47.9705C25.1693 47.7781 25.0019 47.5596 24.9011 47.3151L25.6331 47.0024C25.6976 47.1588 25.8166 47.3031 25.99 47.4354C26.1675 47.5636 26.3691 47.6678 26.595 47.748C26.8208 47.8242 27.0446 47.8623 27.2665 47.8623C27.5125 47.8623 27.7424 47.8222 27.9561 47.742C28.1699 47.6618 28.3433 47.5476 28.4764 47.3993C28.6135 47.247 28.6821 47.0686 28.6821 46.8641C28.6821 46.6437 28.6095 46.4713 28.4643 46.347C28.3191 46.2188 28.1356 46.1185 27.9138 46.0464C27.6919 45.9702 27.4641 45.8981 27.2302 45.8299C26.8027 45.7137 26.4256 45.5854 26.0989 45.4451C25.7722 45.3048 25.5161 45.1264 25.3306 44.91C25.1491 44.6895 25.0584 44.4069 25.0584 44.0622C25.0584 43.6974 25.1612 43.3827 25.3669 43.1182C25.5766 42.8496 25.8488 42.6432 26.1836 42.4989C26.5224 42.3505 26.8833 42.2764 27.2665 42.2764C27.7585 42.2764 28.2062 42.3826 28.6095 42.5951C29.0168 42.8075 29.3112 43.0901 29.4927 43.4429L28.8091 43.8457C28.7365 43.6814 28.6216 43.5391 28.4643 43.4188C28.307 43.2986 28.1275 43.2043 27.9259 43.1362C27.7282 43.0681 27.5266 43.032 27.3209 43.028C27.0628 43.024 26.8228 43.062 26.601 43.1422C26.3792 43.2184 26.1997 43.3326 26.0626 43.4849C25.9295 43.6373 25.863 43.8237 25.863 44.0441C25.863 44.2646 25.9295 44.433 26.0626 44.5492C26.1957 44.6614 26.3752 44.7536 26.601 44.8258C26.8309 44.8939 27.089 44.9741 27.3754 45.0663C27.7424 45.1826 28.0872 45.3148 28.4098 45.4632C28.7325 45.6115 28.9926 45.7959 29.1902 46.0163C29.3878 46.2368 29.4846 46.5154 29.4806 46.8521C29.4806 47.2129 29.3717 47.5275 29.1539 47.7961C28.9361 48.0647 28.6538 48.2711 28.307 48.4154C27.9601 48.5557 27.5891 48.6199 27.1939 48.6078Z" fill="#808080"/>
<path d="M34.5827 43.3226H33.1368L33.1308 48.4936H32.2838L32.2899 43.3226H31.1949V42.4808H32.2899L32.2838 40.5928H33.1308L33.1368 42.4808H34.5827V43.3226Z" fill="#808080"/>
<path d="M36.6302 48.4936V42.4808H37.4771V43.3106C37.6949 43.0059 37.9732 42.7634 38.3119 42.583C38.6507 42.4026 39.0218 42.3125 39.4251 42.3125C39.8808 42.3125 40.2982 42.4247 40.6773 42.6492C41.0564 42.8696 41.3529 43.1643 41.5666 43.5331C41.7804 43.1643 42.0748 42.8696 42.4498 42.6492C42.8249 42.4247 43.2403 42.3125 43.6961 42.3125C44.1518 42.3125 44.5672 42.4227 44.9423 42.6432C45.3173 42.8636 45.6158 43.1603 45.8376 43.5331C46.0594 43.9058 46.1703 44.3187 46.1703 44.7717V48.4936H45.3234V44.9581C45.3234 44.6374 45.2447 44.3408 45.0875 44.0682C44.9302 43.7956 44.7184 43.5771 44.4522 43.4128C44.1901 43.2444 43.8977 43.1603 43.5751 43.1603C43.2524 43.1603 42.958 43.2384 42.6918 43.3948C42.4297 43.5471 42.22 43.7595 42.0627 44.0321C41.9054 44.3007 41.8267 44.6093 41.8267 44.9581V48.4936H40.9798V44.9581C40.9798 44.6093 40.9012 44.3007 40.7439 44.0321C40.5866 43.7595 40.3748 43.5471 40.1087 43.3948C39.8425 43.2384 39.5481 43.1603 39.2254 43.1603C38.9068 43.1603 38.6144 43.2444 38.3482 43.4128C38.0821 43.5771 37.8703 43.7956 37.713 44.0682C37.5557 44.3408 37.4771 44.6374 37.4771 44.9581V48.4936H36.6302Z" fill="#808080"/>
<path d="M50.8939 48.6499C50.3373 48.6499 49.8292 48.5076 49.3694 48.223C48.9137 47.9384 48.5487 47.5576 48.2744 47.0806C48.0042 46.5996 47.8691 46.0684 47.8691 45.4872C47.8691 45.0463 47.9478 44.6354 48.1051 44.2546C48.2623 43.8698 48.4781 43.5331 48.7524 43.2444C49.0306 42.9518 49.3533 42.7233 49.7203 42.559C50.0873 42.3946 50.4785 42.3125 50.8939 42.3125C51.3416 42.3125 51.753 42.4006 52.128 42.577C52.5071 42.7534 52.8318 42.9999 53.102 43.3166C53.3763 43.6333 53.5819 44.0041 53.7191 44.429C53.8602 44.8539 53.9187 45.3128 53.8945 45.8059H48.7645C48.8129 46.1867 48.9338 46.5274 49.1274 46.8281C49.3251 47.1287 49.5751 47.3672 49.8776 47.5436C50.1841 47.7159 50.5229 47.8041 50.8939 47.8081C51.2972 47.8081 51.6602 47.7039 51.9828 47.4955C52.3095 47.287 52.5717 47.0004 52.7693 46.6357L53.6283 46.8341C53.3863 47.3672 53.0213 47.8041 52.5333 48.1449C52.0453 48.4816 51.4989 48.6499 50.8939 48.6499ZM48.7403 45.1264H53.0415C53.0133 44.7536 52.8983 44.4129 52.6967 44.1043C52.4991 43.7916 52.243 43.5431 51.9284 43.3587C51.6138 43.1703 51.269 43.0761 50.8939 43.0761C50.5188 43.0761 50.176 43.1683 49.8655 43.3527C49.5549 43.533 49.3009 43.7796 49.1032 44.0922C48.9056 44.4009 48.7846 44.7456 48.7403 45.1264Z" fill="#808080"/>
<path d="M61.1747 44.7717V48.4936H60.3277V44.94C60.3277 44.6113 60.2471 44.3127 60.0858 44.0441C59.9244 43.7756 59.7087 43.5611 59.4385 43.4008C59.1682 43.2404 58.8678 43.1603 58.5371 43.1603C58.2104 43.1603 57.9099 43.2404 57.6357 43.4008C57.3655 43.5611 57.1497 43.7756 56.9884 44.0441C56.8271 44.3127 56.7464 44.6113 56.7464 44.94V48.4936H55.8995V42.4808H56.7464V43.3106C56.9602 43.0059 57.2384 42.7634 57.5812 42.583C57.924 42.4026 58.2971 42.3125 58.7004 42.3125C59.1561 42.3125 59.5715 42.4227 59.9466 42.6432C60.3217 42.8636 60.6201 43.1603 60.842 43.5331C61.0638 43.9058 61.1747 44.3187 61.1747 44.7717Z" fill="#808080"/>
<path d="M66.4455 43.3226H64.9996L64.9936 48.4936H64.1466L64.1527 43.3226H63.0577V42.4808H64.1527L64.1466 40.5928H64.9936L64.9996 42.4808H66.4455V43.3226Z" fill="#808080"/>
<path d="M76.2937 48.6499C75.7129 48.6499 75.1685 48.5377 74.6603 48.3132C74.1562 48.0847 73.7146 47.7701 73.3355 47.3692C72.9563 46.9643 72.6599 46.4994 72.4462 45.9742C72.2324 45.4451 72.1255 44.8799 72.1255 44.2786C72.1255 43.6653 72.2365 43.0941 72.4583 42.565C72.6801 42.0359 72.9846 41.5749 73.3718 41.182C73.7589 40.7852 74.2026 40.4765 74.7027 40.2561C75.2068 40.0356 75.7412 39.9254 76.3058 39.9254C76.9551 39.9254 77.5681 40.0757 78.1449 40.3763C78.7256 40.677 79.2177 41.1039 79.621 41.6571L78.8648 42.0659C78.5421 41.645 78.1529 41.3223 77.6972 41.0979C77.2455 40.8734 76.7797 40.7612 76.2997 40.7612C75.844 40.7612 75.4145 40.8534 75.0112 41.0377C74.6119 41.2181 74.259 41.4707 73.9525 41.7953C73.646 42.12 73.406 42.4948 73.2326 42.9197C73.0592 43.3447 72.9725 43.8016 72.9725 44.2907C72.9725 44.7757 73.0592 45.2307 73.2326 45.6556C73.406 46.0805 73.644 46.4553 73.9465 46.78C74.253 47.1006 74.6079 47.3532 75.0112 47.5376C75.4145 47.718 75.846 47.8081 76.3058 47.8081C76.6849 47.8081 77.0438 47.744 77.3826 47.6157C77.7254 47.4835 78.038 47.2991 78.3203 47.0626C78.6026 46.8261 78.8406 46.5495 79.0341 46.2328C79.2318 45.9161 79.3749 45.5714 79.4637 45.1986H77.1769V44.435H80.4498C80.4377 45.0162 80.3207 45.5614 80.0989 46.0704C79.8771 46.5795 79.5746 47.0285 79.1914 47.4173C78.8123 47.8021 78.3747 48.1048 77.8787 48.3252C77.3867 48.5417 76.8583 48.6499 76.2937 48.6499Z" fill="#808080"/>
<path d="M82.5989 48.4936V42.4808H83.4458V43.3106C83.6596 43.0059 83.9378 42.7634 84.2806 42.583C84.6235 42.4026 84.9965 42.3125 85.3998 42.3125C85.6337 42.3125 85.8596 42.3425 86.0774 42.4026L85.7325 43.2384C85.5632 43.1863 85.3978 43.1603 85.2365 43.1603C84.9098 43.1603 84.6093 43.2404 84.3351 43.4008C84.0649 43.5611 83.8491 43.7756 83.6878 44.0441C83.5265 44.3127 83.4458 44.6113 83.4458 44.94V48.4936H82.5989Z" fill="#808080"/>
<path d="M90.1514 48.6499C89.5948 48.6499 89.0867 48.5076 88.6269 48.223C88.1712 47.9384 87.8062 47.5576 87.5319 47.0806C87.2617 46.5996 87.1266 46.0684 87.1266 45.4872C87.1266 45.0463 87.2052 44.6354 87.3625 44.2546C87.5198 43.8698 87.7356 43.5331 88.0098 43.2444C88.2881 42.9518 88.6108 42.7233 88.9778 42.559C89.3448 42.3946 89.736 42.3125 90.1514 42.3125C90.7079 42.3125 91.2141 42.4548 91.6698 42.7394C92.1296 43.024 92.4946 43.4068 92.7648 43.8878C93.039 44.3688 93.1762 44.902 93.1762 45.4872C93.1762 45.9241 93.0975 46.333 92.9402 46.7138C92.7829 47.0946 92.5652 47.4313 92.2869 47.724C92.0126 48.0126 91.692 48.2391 91.325 48.4034C90.962 48.5678 90.5708 48.6499 90.1514 48.6499ZM90.1514 47.8081C90.5628 47.8081 90.9318 47.7019 91.2585 47.4895C91.5892 47.273 91.8493 46.9884 92.0388 46.6357C92.2324 46.2829 92.3292 45.9001 92.3292 45.4872C92.3292 45.0663 92.2324 44.6795 92.0388 44.3267C91.8453 43.97 91.5831 43.6854 91.2524 43.4729C90.9257 43.2605 90.5587 43.1542 90.1514 43.1542C89.74 43.1542 89.369 43.2625 89.0383 43.4789C88.7116 43.6914 88.4515 43.974 88.2579 44.3267C88.0683 44.6795 87.9735 45.0663 87.9735 45.4872C87.9735 45.9201 88.0723 46.313 88.27 46.6657C88.4676 47.0145 88.7317 47.293 89.0625 47.5015C89.3932 47.7059 89.7561 47.8081 90.1514 47.8081Z" fill="#808080"/>
<path d="M94.8677 46.1907V42.4808H95.7146V46.0223C95.7146 46.351 95.7953 46.6497 95.9566 46.9183C96.1179 47.1868 96.3337 47.4013 96.6039 47.5616C96.8782 47.722 97.1786 47.8021 97.5053 47.8021C97.836 47.8021 98.1345 47.722 98.4006 47.5616C98.6708 47.4013 98.8866 47.1868 99.0479 46.9183C99.2093 46.6497 99.2899 46.351 99.2899 46.0223V42.4808H100.137L100.143 48.4936H99.296L99.2899 47.6518C99.0762 47.9565 98.7979 48.199 98.4551 48.3794C98.1163 48.5597 97.7453 48.6499 97.3419 48.6499C96.8862 48.6499 96.4708 48.5397 96.0957 48.3192C95.7207 48.0988 95.4222 47.8021 95.2004 47.4293C94.9786 47.0565 94.8677 46.6437 94.8677 46.1907Z" fill="#808080"/>
<path d="M103.045 51.5H102.198V42.4808H103.045V43.6052C103.255 43.2244 103.541 42.9157 103.904 42.6792C104.267 42.4427 104.699 42.3245 105.199 42.3245C105.638 42.3245 106.05 42.4067 106.433 42.571C106.82 42.7354 107.159 42.9638 107.449 43.2565C107.739 43.5451 107.967 43.8798 108.133 44.2606C108.298 44.6414 108.381 45.0503 108.381 45.4872C108.381 45.9241 108.298 46.335 108.133 46.7198C107.967 47.1046 107.739 47.4434 107.449 47.736C107.159 48.0246 106.82 48.2511 106.433 48.4154C106.05 48.5798 105.638 48.662 105.199 48.662C104.699 48.662 104.267 48.5437 103.904 48.3072C103.541 48.0707 103.255 47.762 103.045 47.3812V51.5ZM105.193 43.1422C104.769 43.1422 104.4 43.2484 104.086 43.4609C103.775 43.6693 103.535 43.9499 103.366 44.3027C103.196 44.6554 103.112 45.0503 103.112 45.4872C103.112 45.9161 103.194 46.309 103.36 46.6657C103.529 47.0225 103.769 47.3071 104.079 47.5195C104.394 47.732 104.765 47.8382 105.193 47.8382C105.612 47.8382 105.997 47.734 106.348 47.5255C106.703 47.3171 106.987 47.0365 107.201 46.6838C107.415 46.327 107.522 45.9281 107.522 45.4872C107.522 45.0583 107.417 44.6675 107.207 44.3147C106.997 43.958 106.717 43.6733 106.366 43.4609C106.015 43.2484 105.624 43.1422 105.193 43.1422Z" fill="#808080"/>
</g>
</g>
</svg>
